<svg width="32" height="32" version="1.1" xmlns="http://www.w3.org/2000/svg" desc="Created with imagetracer.js version 1.2.6" ><path fill="rgb(253,253,253)" stroke="rgb(253,253,253)" stroke-width="1" opacity="1" d="M 18.5 5 L 17.5 7 L 16 6.5 L 18.5 5 Z " /><path fill="rgb(253,253,253)" stroke="rgb(253,253,253)" stroke-width="1" opacity="1" d="M 5.5 15 L 3.5 18 L 5.5 15 Z " /><path fill="rgb(253,253,253)" stroke="rgb(253,253,253)" stroke-width="1" opacity="1" d="M 16.5 22 L 15.5 24 L 16.5 22 Z " /><path fill="rgb(235,235,235)" stroke="rgb(235,235,235)" stroke-width="1" opacity="1" d="M 17.5 20 L 16.5 22 L 17.5 20 Z " /><path fill="rgb(14,14,14)" stroke="rgb(14,14,14)" stroke-width="1" opacity="1" d="M 7.5 1 L 9 1.5 L 6.5 3 L 7.5 1 Z " /><path fill="rgb(14,14,14)" stroke="rgb(14,14,14)" stroke-width="1" opacity="1" d="M 14.5 1 L 18 1.5 L 14.5 2 L 14.5 1 Z " /><path fill="rgb(14,14,14)" stroke="rgb(14,14,14)" stroke-width="1" opacity="1" d="M 23.5 1 L 26 2.5 L 24.5 2 L 23.5 1 Z " /><path fill="rgb(14,14,14)" stroke="rgb(14,14,14)" stroke-width="1" opacity="1" d="M 4.5 3 L 3.5 5 L 4.5 3 Z " /><path fill="rgb(14,14,14)" stroke="rgb(14,14,14)" stroke-width="1" opacity="1" d="M 27.5 3 L 28.5 5 L 27.5 3 Z " /><path fill="rgb(14,14,14)" stroke="rgb(14,14,14)" stroke-width="1" opacity="1" d="M 2.5 6 L 2 7.5 L 1.5 9 L 1 7.5 L 2.5 6 Z " /><path fill="rgb(14,14,14)" stroke="rgb(14,14,14)" stroke-width="1" opacity="1" d="M 29.5 6 L 31 8.5 L 30 8.5 L 29.5 6 Z " /><path fill="rgb(14,14,14)" stroke="rgb(14,14,14)" stroke-width="1" opacity="1" d="M 12.5 8 L 11.5 10 L 12.5 8 Z " /><path fill="rgb(14,14,14)" stroke="rgb(14,14,14)" stroke-width="1" opacity="1" d="M 16.5 8 L 17 10.5 L 16 10.5 L 16.5 8 Z " /><path fill="rgb(14,14,14)" stroke="rgb(14,14,14)" stroke-width="1" opacity="1" d="M 10.5 11 L 8.5 14 L 10.5 11 Z " /><path fill="rgb(14,14,14)" stroke="rgb(14,14,14)" stroke-width="1" opacity="1" d="M 1.5 14 L 2 17.5 L 1 17.5 L 1.5 14 Z " /><path fill="rgb(14,14,14)" stroke="rgb(14,14,14)" stroke-width="1" opacity="1" d="M 17.5 14 L 16.5 16 L 17.5 14 Z " /><path fill="rgb(14,14,14)" stroke="rgb(14,14,14)" stroke-width="1" opacity="1" d="M 9.5 17 L 7.5 20 L 9.5 17 Z " /><path fill="rgb(14,14,14)" stroke="rgb(14,14,14)" stroke-width="1" opacity="1" d="M 18.5 17 L 17.5 19 L 18.5 17 Z " /><path fill="rgb(14,14,14)" stroke="rgb(14,14,14)" stroke-width="1" opacity="1" d="M 6.5 21 L 4.5 24 L 6.5 21 Z " /><path fill="rgb(14,14,14)" stroke="rgb(14,14,14)" stroke-width="1" opacity="1" d="M 1.5 23 L 3 25.5 L 1 24.5 L 1.5 23 Z " /><path fill="rgb(14,14,14)" stroke="rgb(14,14,14)" stroke-width="1" opacity="1" d="M 30.5 23 L 31 24.5 L 29 25.5 L 30.5 23 Z " /><path fill="rgb(14,14,14)" stroke="rgb(14,14,14)" stroke-width="1" opacity="1" d="M 3.5 27 L 4.5 29 L 3.5 27 Z " /><path fill="rgb(14,14,14)" stroke="rgb(14,14,14)" stroke-width="1" opacity="1" d="M 28.5 27 L 27.5 29 L 28.5 27 Z " /><path fill="rgb(14,14,14)" stroke="rgb(14,14,14)" stroke-width="1" opacity="1" d="M 6.5 29 L 9 30.5 L 7.5 31 L 6.5 29 Z " /><path fill="rgb(14,14,14)" stroke="rgb(14,14,14)" stroke-width="1" opacity="1" d="M 25.5 29 L 24.5 31 L 23 30.5 L 25.5 29 Z " /><path fill="rgb(255,255,255)" stroke="rgb(255,255,255)" stroke-width="1" opacity="1" d="M 14.5 2 Q 22 2 25 6.5 L 20 7 L 17.5 12 L 17 7.5 L 17.5 6 L 14.5 7 L 12.5 7 L 10 8.5 L 2.5 18 L 2 14 L 4 13.5 L 3 11.5 L 9.5 4 L 14.5 2 Z " /><path fill="rgb(255,255,255)" stroke="rgb(255,255,255)" stroke-width="1" opacity="1" d="M 27.5 9 L 30 15.5 L 29 18.5 Q 28.6 24.1 24.5 26 L 23 20.5 L 27.5 9 Z " /><path fill="rgb(255,255,255)" stroke="rgb(255,255,255)" stroke-width="1" opacity="1" d="M 8.5 21 L 9 22.5 L 7.5 26 Q 4.8 24.8 7 23.5 L 8.5 21 Z " /><path fill="rgb(255,255,255)" stroke="rgb(255,255,255)" stroke-width="1" opacity="1" d="M 9.5 27 L 12.5 28 L 13.5 27 L 22.5 27 L 22.5 28 L 15.5 30 L 9.5 28 L 9.5 27 Z " /><path fill="rgb(245,245,245)" stroke="rgb(245,245,245)" stroke-width="1" opacity="1" d="M 13.5 0 L 19 0.5 L 13.5 1 L 13.5 0 Z " /><path fill="rgb(245,245,245)" stroke="rgb(245,245,245)" stroke-width="1" opacity="1" d="M 0.5 13 L 1 18.5 L 0 18.5 L 0.5 13 Z " /><path fill="rgb(245,245,245)" stroke="rgb(245,245,245)" stroke-width="1" opacity="1" d="M 31.5 14 L 32 17.5 L 31 17.5 L 31.5 14 Z " /><path fill="rgb(245,245,245)" stroke="rgb(245,245,245)" stroke-width="1" opacity="1" d="M 16.5 25 L 15.5 27 L 14 26.5 L 16.5 25 Z " /><path fill="rgb(245,245,245)" stroke="rgb(245,245,245)" stroke-width="1" opacity="1" d="M 14.5 31 L 18 31.5 L 14.5 32 L 14.5 31 Z " /><path fill="rgb(0,0,0)" stroke="rgb(0,0,0)" stroke-width="1" opacity="1" d="M 0 0 L 10 0.5 L 3 4.5 L 0.5 10 L 0 0 Z " /><path fill="rgb(0,0,0)" stroke="rgb(0,0,0)" stroke-width="1" opacity="1" d="M 22.5 0 L 32 0 L 32 9.5 L 31 9.5 L 27.5 3 L 22.5 1 L 22.5 0 Z " /><path fill="rgb(0,0,0)" stroke="rgb(0,0,0)" stroke-width="1" opacity="1" d="M 13.5 8 L 16 8.5 L 16 15.5 L 18 14.5 L 22.5 8 Q 26.9 6.5 26 9.5 L 21 22 Q 17.2 23.5 18 20.5 L 19 17.5 L 17 18.5 L 16 22 L 11 22 L 11 19.5 L 12 16 L 7 19.5 L 4.5 23 Q 1.9 23.8 3 20.5 L 13.5 8 Z " /><path fill="rgb(0,0,0)" stroke="rgb(0,0,0)" stroke-width="1" opacity="1" d="M 0.5 22 L 4.5 29 L 10 31.5 L 0 32 L 0.5 22 Z " /><path fill="rgb(0,0,0)" stroke="rgb(0,0,0)" stroke-width="1" opacity="1" d="M 31.5 22 L 32 32 L 22 31.5 L 29 27.5 L 31.5 22 Z " /><path fill="rgb(64,64,64)" stroke="rgb(64,64,64)" stroke-width="1" opacity="1" d="M 5.5 3 L 3.5 6 L 5.5 3 Z " /><path fill="rgb(64,64,64)" stroke="rgb(64,64,64)" stroke-width="1" opacity="1" d="M 26.5 3 L 28.5 6 L 26.5 3 Z " /><path fill="rgb(64,64,64)" stroke="rgb(64,64,64)" stroke-width="1" opacity="1" d="M 21.5 8 L 20.5 10 L 21.5 8 Z " /><path fill="rgb(64,64,64)" stroke="rgb(64,64,64)" stroke-width="1" opacity="1" d="M 19.5 11 L 18.5 13 L 19.5 11 Z " /><path fill="rgb(64,64,64)" stroke="rgb(64,64,64)" stroke-width="1" opacity="1" d="M 10.5 16 L 11.5 18 L 10.5 16 Z " /><path fill="rgb(64,64,64)" stroke="rgb(64,64,64)" stroke-width="1" opacity="1" d="M 10.5 19 L 11 21.5 L 10 21.5 L 10.5 19 Z " /><path fill="rgb(64,64,64)" stroke="rgb(64,64,64)" stroke-width="1" opacity="1" d="M 17.5 19 L 19 19.5 L 16.5 21 L 17.5 19 Z " /><path fill="rgb(64,64,64)" stroke="rgb(64,64,64)" stroke-width="1" opacity="1" d="M 3.5 23 L 4.5 25 L 3.5 23 Z " /><path fill="rgb(64,64,64)" stroke="rgb(64,64,64)" stroke-width="1" opacity="1" d="M 9.5 24 L 10.5 26 Q 7.7 26.7 9.5 24 Z " /><path fill="rgb(64,64,64)" stroke="rgb(64,64,64)" stroke-width="1" opacity="1" d="M 22.5 24 L 21.5 26 L 22.5 24 Z " /><path fill="rgb(64,64,64)" stroke="rgb(64,64,64)" stroke-width="1" opacity="1" d="M 3.5 26 L 5.5 29 L 3.5 26 Z " /><path fill="rgb(64,64,64)" stroke="rgb(64,64,64)" stroke-width="1" opacity="1" d="M 28.5 26 L 26.5 29 L 28.5 26 Z " /><path fill="rgb(220,220,220)" stroke="rgb(220,220,220)" stroke-width="1" opacity="1" d="M 21.5 7 L 19.5 10 L 21.5 7 Z " /><path fill="rgb(220,220,220)" stroke="rgb(220,220,220)" stroke-width="1" opacity="1" d="M 29.5 23 L 28.5 25 L 29.5 23 Z " /><path fill="rgb(220,220,220)" stroke="rgb(220,220,220)" stroke-width="1" opacity="1" d="M 8.5 25 L 9.5 27 L 7 26.5 L 8.5 25 Z " /><path fill="rgb(220,220,220)" stroke="rgb(220,220,220)" stroke-width="1" opacity="1" d="M 24.5 28 L 23.5 30 L 24.5 28 Z " /><path fill="rgb(129,129,129)" stroke="rgb(129,129,129)" stroke-width="1" opacity="1" d="M 7.5 2 L 10 3.5 L 8.5 4 L 7 3.5 L 5.5 7 L 3 7.5 L 4 9.5 L 3 9.5 L 2 7.5 L 6 4.5 L 7.5 2 Z " /><path fill="rgb(129,129,129)" stroke="rgb(129,129,129)" stroke-width="1" opacity="1" d="M 24.5 2 L 27.5 6 L 30 7.5 L 28.5 10 L 28 8.5 L 28.5 7 Q 26.3 6.3 27 8.5 L 25.5 8 L 22 7.5 L 26 6.5 L 22 3.5 L 24.5 2 Z " /><path fill="rgb(129,129,129)" stroke="rgb(129,129,129)" stroke-width="1" opacity="1" d="M 13.5 7 L 17 7.5 L 13.5 8 L 13.5 7 Z " /><path fill="rgb(129,129,129)" stroke="rgb(129,129,129)" stroke-width="1" opacity="1" d="M 9.5 11 L 8.5 13 L 9.5 11 Z " /><path fill="rgb(129,129,129)" stroke="rgb(129,129,129)" stroke-width="1" opacity="1" d="M 29.5 12 L 30.5 14 L 29.5 12 Z " /><path fill="rgb(129,129,129)" stroke="rgb(129,129,129)" stroke-width="1" opacity="1" d="M 24.5 14 L 25 15.5 L 23.5 18 L 23 16.5 L 24.5 14 Z " /><path fill="rgb(129,129,129)" stroke="rgb(129,129,129)" stroke-width="1" opacity="1" d="M 30.5 18 L 29.5 20 L 30.5 18 Z " /><path fill="rgb(129,129,129)" stroke="rgb(129,129,129)" stroke-width="1" opacity="1" d="M 6.5 22 L 6 23.5 L 7.5 29 L 9.5 28 L 9.5 29 L 7.5 30 L 4.5 26 L 2 24.5 L 3.5 25 Q 5.8 25.8 5 23.5 L 6.5 22 Z " /><path fill="rgb(129,129,129)" stroke="rgb(129,129,129)" stroke-width="1" opacity="1" d="M 10 22 L 16.5 23 L 22 22 L 21.5 24 L 19.5 23 L 17.5 26 L 15.5 26 L 13 26 Q 14.5 22.3 11.5 23 L 10 23.5 L 10 22 Z " /><path fill="rgb(129,129,129)" stroke="rgb(129,129,129)" stroke-width="1" opacity="1" d="M 28.5 22 L 30 24.5 L 26 27.5 L 24.5 30 L 22 28.5 L 23.5 28 L 25 28.5 L 26.5 25 L 29 24.5 L 28.5 22 Z " /><path fill="rgb(129,129,129)" stroke="rgb(129,129,129)" stroke-width="1" opacity="1" d="M 12.5 29 L 13.5 31 L 12.5 29 Z " /><path fill="rgb(129,129,129)" stroke="rgb(129,129,129)" stroke-width="1" opacity="1" d="M 19.5 29 L 18.5 31 L 19.5 29 Z " /><path fill="rgb(179,179,179)" stroke="rgb(179,179,179)" stroke-width="1" opacity="1" d="M 7.5 3 L 8.5 5 L 7.5 3 Z " /><path fill="rgb(179,179,179)" stroke="rgb(179,179,179)" stroke-width="1" opacity="1" d="M 24.5 3 L 23.5 5 L 24.5 3 Z " /><path fill="rgb(179,179,179)" stroke="rgb(179,179,179)" stroke-width="1" opacity="1" d="M 5.5 4 L 4.5 6 L 5.5 4 Z " /><path fill="rgb(179,179,179)" stroke="rgb(179,179,179)" stroke-width="1" opacity="1" d="M 26.5 4 L 27.5 6 L 26.5 4 Z " /><path fill="rgb(179,179,179)" stroke="rgb(179,179,179)" stroke-width="1" opacity="1" d="M 3.5 7 L 4.5 9 L 3.5 7 Z " /><path fill="rgb(179,179,179)" stroke="rgb(179,179,179)" stroke-width="1" opacity="1" d="M 28.5 7 L 26.5 10 L 28.5 7 Z " /><path fill="rgb(179,179,179)" stroke="rgb(179,179,179)" stroke-width="1" opacity="1" d="M 10.5 9 L 9.5 11 L 10.5 9 Z " /><path fill="rgb(179,179,179)" stroke="rgb(179,179,179)" stroke-width="1" opacity="1" d="M 0.5 12 L 3 12.5 L 0.5 13 L 0.5 12 Z " /><path fill="rgb(179,179,179)" stroke="rgb(179,179,179)" stroke-width="1" opacity="1" d="M 5.5 16 L 4.5 18 L 5.5 16 Z " /><path fill="rgb(179,179,179)" stroke="rgb(179,179,179)" stroke-width="1" opacity="1" d="M 10.5 17 L 9.5 19 L 10.5 17 Z " /><path fill="rgb(179,179,179)" stroke="rgb(179,179,179)" stroke-width="1" opacity="1" d="M 8.5 20 L 7.5 22 L 8.5 20 Z " /><path fill="rgb(179,179,179)" stroke="rgb(179,179,179)" stroke-width="1" opacity="1" d="M 9.5 23 L 8.5 25 L 9.5 23 Z " /><path fill="rgb(179,179,179)" stroke="rgb(179,179,179)" stroke-width="1" opacity="1" d="M 12.5 23 L 14 26.5 L 12.5 26 L 10.5 27 L 11 25.5 L 12.5 23 Z " /><path fill="rgb(179,179,179)" stroke="rgb(179,179,179)" stroke-width="1" opacity="1" d="M 19.5 23 L 22 26.5 L 18 25.5 L 19.5 23 Z " /><path fill="rgb(179,179,179)" stroke="rgb(179,179,179)" stroke-width="1" opacity="1" d="M 4.5 26 L 5.5 28 L 4.5 26 Z " /><path fill="rgb(179,179,179)" stroke="rgb(179,179,179)" stroke-width="1" opacity="1" d="M 27.5 26 L 26.5 28 L 27.5 26 Z " /><path fill="rgb(179,179,179)" stroke="rgb(179,179,179)" stroke-width="1" opacity="1" d="M 8.5 27 L 7.5 29 L 8.5 27 Z " /></svg>